<svg xmlns="http://www.w3.org/2000/svg" xmlns:xlink="http://www.w3.org/1999/xlink" version="1.1" x="0px" y="0px" viewBox="0 0 100 125" enable-background="new 0 0 100 100" xml:space="preserve"><path d="M6.2,58.6V41.4c0-4.2,3.4-7.6,7.6-7.6h15.6l18.8-13c2-1.1,4.4,0.3,4.4,2.5v53.3c0,2.3-2.4,3.7-4.4,2.5l-18-13H13.8  C9.6,66.2,6.2,62.8,6.2,58.6z M67.4,66.2l10.2-10.2l10.2,10.2l5.9-5.9L83.5,50l10.2-10.2l-5.9-5.9L77.6,44L67.4,33.8l-5.9,5.9  L71.7,50L61.4,60.2L67.4,66.2z"/><text x="0" y="115" fill="#000000" font-size="5px" font-weight="bold" font-family="'Helvetica Neue', Helvetica, Arial-Unicode, Arial, Sans-serif">Created by Gregor Črešnar</text><text x="0" y="120" fill="#000000" font-size="5px" font-weight="bold" font-family="'Helvetica Neue', Helvetica, Arial-Unicode, Arial, Sans-serif">from the Noun Project</text></svg>