<svg xmlns="http://www.w3.org/2000/svg" xmlns:xlink="http://www.w3.org/1999/xlink" version="1.1" x="0px" y="0px" viewBox="0 0 100 125" enable-background="new 0 0 100 100" xml:space="preserve"><path d="M29.5,66.2H13.1c-4.2,0-7.6-3.4-7.6-7.6V41.4c0-4.2,3.4-7.6,7.6-7.6h15.6l18.8-13c2-1.1,4.4,0.3,4.4,2.5v53.3  c0,2.3-2.4,3.7-4.4,2.5L29.5,66.2z M73.3,21.7c15.6,15.6,15.6,41,0,56.7l6.7,6.7c19.3-19.3,19.3-50.7,0-70L73.3,21.7z M67.4,72.5  c12.4-12.4,12.4-32.6,0-45l-6.7,6.7C65,38.4,67.3,44,67.3,50c0,6-2.3,11.6-6.6,15.8L67.4,72.5z"/><text x="0" y="115" fill="#000000" font-size="5px" font-weight="bold" font-family="'Helvetica Neue', Helvetica, Arial-Unicode, Arial, Sans-serif">Created by Gregor Črešnar</text><text x="0" y="120" fill="#000000" font-size="5px" font-weight="bold" font-family="'Helvetica Neue', Helvetica, Arial-Unicode, Arial, Sans-serif">from the Noun Project</text></svg>